<svg width="23" height="19" viewBox="0 0 23 19" fill="none" xmlns="http://www.w3.org/2000/svg">
<path d="M20.331 4.79145V2.52829L11.5 8.15987L2.66901 2.52829V4.79145L11.5 10.3704L20.331 4.79145ZM20.331 0.265137C20.9163 0.265137 21.4155 0.493207 21.8286 0.949347C22.2762 1.40549 22.5 1.9318 22.5 2.52829V16.002C22.5 16.5985 22.2762 17.1248 21.8286 17.5809C21.4155 18.0371 20.9163 18.2651 20.331 18.2651H2.66901C2.08372 18.2651 1.56729 18.0371 1.11972 17.5809C0.706573 17.1248 0.5 16.5985 0.5 16.002V2.52829C0.5 1.9318 0.706573 1.40549 1.11972 0.949347C1.56729 0.493207 2.08372 0.265137 2.66901 0.265137H20.331Z" fill="#B41414"/>
</svg>
