<svg width="23" height="19" viewBox="0 0 23 19" fill="none" xmlns="http://www.w3.org/2000/svg">
<path d="M4.92554 14.7808H18.8943L14.3943 8.78076L10.9255 13.2808L8.39429 10.2808L4.92554 14.7808ZM20.9099 0.765137C21.4099 0.765137 21.863 0.983887 22.2693 1.42139C22.7068 1.82764 22.9255 2.28076 22.9255 2.78076V16.7495C22.9255 17.2495 22.7068 17.7183 22.2693 18.1558C21.863 18.562 21.4099 18.7651 20.9099 18.7651H2.90991C2.37866 18.7651 1.90991 18.562 1.50366 18.1558C1.09741 17.7495 0.894287 17.2808 0.894287 16.7495V2.78076C0.894287 2.28076 1.09741 1.82764 1.50366 1.42139C1.94116 0.983887 2.40991 0.765137 2.90991 0.765137H20.9099Z" fill="#131210"/>
</svg>
