<svg width="26" height="26" viewBox="0 0 26 26" fill="none" xmlns="http://www.w3.org/2000/svg">
<g filter="url(#filter0_d_393_1600)">
<rect x="1" width="24" height="24" rx="8" fill="#F6F6F6"/>
<g clip-path="url(#clip0_393_1600)">
<path d="M12.0531 12.9446C12.2163 12.4441 12.4449 12.0242 12.7388 11.7174C13.0327 11.4106 13.4245 11.1038 13.9306 10.8131C14.2082 10.6517 14.4531 10.4579 14.6653 10.2318C14.8776 10.0058 15.0408 9.7474 15.1551 9.47289C15.2694 9.19839 15.3347 8.87543 15.3347 8.53633C15.3347 8.11649 15.2367 7.7451 15.0408 7.42215C14.8449 7.09919 14.5673 6.85698 14.2245 6.67935C13.8816 6.50173 13.4898 6.42099 13.0653 6.42099C12.6898 6.42099 12.3306 6.48558 11.9878 6.64706C11.6449 6.80853 11.3837 7.05075 11.1551 7.3737C10.9265 7.69666 10.7959 8.11649 10.7633 8.61707H9C9.03265 7.87428 9.22857 7.22837 9.58776 6.67935C9.94694 6.13033 10.4367 5.72664 11.0408 5.43599C11.6449 5.14533 12.3143 5 13.049 5C13.8327 5 14.5347 5.16148 15.1224 5.46828C15.7102 5.77509 16.1837 6.21107 16.5102 6.76009C16.8367 7.30911 17 7.92272 17 8.61707C17 9.31142 16.8367 9.95732 16.5102 10.4902C16.1837 11.0231 15.7102 11.4752 15.1061 11.8466C14.698 12.0888 14.3714 12.3472 14.1429 12.6055C13.9143 12.8639 13.7347 13.1869 13.6204 13.5582C13.5061 13.9296 13.4408 14.3818 13.4245 14.9308V15.0277H11.7918V14.9308C11.7918 14.1234 11.8898 13.4614 12.0531 12.9446ZM12.0531 18.8224C11.8571 18.7093 11.7102 18.564 11.5959 18.3702C11.4816 18.1765 11.4327 17.9827 11.4327 17.7566C11.4327 17.5467 11.4816 17.3368 11.5959 17.143C11.7102 16.9492 11.8571 16.8039 12.0531 16.6909C12.249 16.5779 12.4449 16.5294 12.6735 16.5294C12.902 16.5294 13.098 16.5779 13.2939 16.6909C13.4898 16.8039 13.6367 16.9492 13.7347 17.143C13.8327 17.3368 13.898 17.5306 13.898 17.7566C13.898 17.9827 13.849 18.1765 13.7347 18.3702C13.6204 18.564 13.4735 18.7093 13.2939 18.8224C13.1143 18.9354 12.902 19 12.6735 19C12.4449 19 12.249 18.9354 12.0531 18.8224Z" fill="black"/>
</g>
<rect x="1.5" y="0.5" width="23" height="23" rx="7.5" stroke="#D9D9D9"/>
</g>
<defs>
<filter id="filter0_d_393_1600" x="0" y="0" width="26" height="26" filterUnits="userSpaceOnUse" color-interpolation-filters="sRGB">
<feFlood flood-opacity="0" result="BackgroundImageFix"/>
<feColorMatrix in="SourceAlpha" type="matrix" values="0 0 0 0 0 0 0 0 0 0 0 0 0 0 0 0 0 0 127 0" result="hardAlpha"/>
<feOffset dy="1"/>
<feGaussianBlur stdDeviation="0.5"/>
<feComposite in2="hardAlpha" operator="out"/>
<feColorMatrix type="matrix" values="0 0 0 0 0 0 0 0 0 0 0 0 0 0 0 0 0 0 0.2 0"/>
<feBlend mode="normal" in2="BackgroundImageFix" result="effect1_dropShadow_393_1600"/>
<feBlend mode="normal" in="SourceGraphic" in2="effect1_dropShadow_393_1600" result="shape"/>
</filter>
<clipPath id="clip0_393_1600">
<rect width="8" height="14" fill="white" transform="translate(9 5)"/>
</clipPath>
</defs>
</svg>
