<svg width="22" height="15" viewBox="0 0 22 15" fill="none" xmlns="http://www.w3.org/2000/svg">
<path d="M21.8623 0.786865L12.2833 10.1853C11.9165 10.5556 11.4583 10.6945 10.9999 10.6945C10.5415 10.6945 10.0833 10.5093 9.71654 10.1853L0.1375 0.786865C0.0458857 0.972104 0 1.15734 0 1.38877V13.6111C0 14.398 0.595886 15 1.375 15H20.625C21.4041 15 22 14.398 22 13.6111V1.38877C22 1.15734 21.9541 0.972104 21.8625 0.786865H21.8623Z" fill="black"/>
<path d="M11.6414 9.53696L21.2208 0.13889C21.0374 0.0463495 20.8542 0 20.6249 0H1.37494C1.14582 0 0.962438 0.0463495 0.779053 0.13889L10.3581 9.53696C10.7249 9.86108 11.2749 9.86108 11.6415 9.53696H11.6414Z" fill="black"/>
</svg>
