<svg width="26" height="26" viewBox="0 0 26 26" fill="none" xmlns="http://www.w3.org/2000/svg">
<g filter="url(#filter0_d_156_1535)">
<rect x="1" width="24" height="24" rx="8" fill="#F6F6F6"/>
<path d="M19.5177 18.0349H13.8871C14.0244 17.9113 14.1518 17.7776 14.2684 17.6344L19.1317 11.6008C19.4162 11.2417 19.5497 10.7858 19.5039 10.3296C19.4582 9.87336 19.2362 9.45329 18.8858 9.15843L14.4468 5.38851C14.1129 5.1058 13.6801 4.96816 13.2442 5.00622C12.8083 5.04429 12.4058 5.25501 12.126 5.59124L6.69335 12.0206C6.20068 12.6142 5.95476 13.3749 6.00687 14.1447C6.05897 14.9148 6.40497 15.6353 6.97346 16.1571L8.99019 18.0346C9.65572 18.6519 10.5289 18.9964 11.4365 19H19.5174C19.6897 19 19.8491 18.9079 19.9354 18.7587C20.0217 18.6094 20.0214 18.4252 19.9354 18.276C19.8494 18.1268 19.69 18.0346 19.5174 18.0346H19.5177V18.0349ZM12.8646 6.21404C12.9848 6.07007 13.1596 5.98263 13.347 5.9727H13.4049C13.564 5.9727 13.7179 6.02897 13.8392 6.13185L18.2729 9.88715C18.4326 10.0201 18.5337 10.2099 18.5555 10.4165C18.577 10.6228 18.5172 10.8296 18.3887 10.9926L14.7462 15.5106L9.06739 10.708L12.8646 6.21404ZM7.61529 15.4477C7.23179 15.0927 6.99883 14.604 6.96464 14.0821C6.93073 13.5605 7.0978 13.0453 7.43195 12.6434L8.42115 11.4464L14.1047 16.2732L13.4918 17.0359C13.0361 17.6126 12.3609 17.9734 11.6283 18.031C10.8958 18.0887 10.1724 17.8382 9.63201 17.3401L7.61529 15.448V15.4477Z" fill="#131210"/>
<rect x="1.5" y="0.5" width="23" height="23" rx="7.5" stroke="#D9D9D9"/>
</g>
<defs>
<filter id="filter0_d_156_1535" x="0" y="0" width="26" height="26" filterUnits="userSpaceOnUse" color-interpolation-filters="sRGB">
<feFlood flood-opacity="0" result="BackgroundImageFix"/>
<feColorMatrix in="SourceAlpha" type="matrix" values="0 0 0 0 0 0 0 0 0 0 0 0 0 0 0 0 0 0 127 0" result="hardAlpha"/>
<feOffset dy="1"/>
<feGaussianBlur stdDeviation="0.5"/>
<feComposite in2="hardAlpha" operator="out"/>
<feColorMatrix type="matrix" values="0 0 0 0 0 0 0 0 0 0 0 0 0 0 0 0 0 0 0.2 0"/>
<feBlend mode="normal" in2="BackgroundImageFix" result="effect1_dropShadow_156_1535"/>
<feBlend mode="normal" in="SourceGraphic" in2="effect1_dropShadow_156_1535" result="shape"/>
</filter>
</defs>
</svg>
